<?xml version="1.0" encoding="UTF-8"?>
<svg width="156px" height="54px" viewBox="0 0 156 54" version="1.1" xmlns="http://www.w3.org/2000/svg" xmlns:xlink="http://www.w3.org/1999/xlink">
  <defs>
    <linearGradient x1="-0.0035988052%" y1="49.9312734%" x2="100.010796%" y2="49.9312734%" id="linearGradient-1">
      <stop stop-color="#E9CC84" offset="17%"></stop>
      <stop stop-color="#FFE6AB" offset="37%"></stop>
      <stop stop-color="#E9CC84" offset="63%"></stop>
      <stop stop-color="#E9CC84" offset="92%"></stop>
    </linearGradient>
    <linearGradient x1="1.82992903%" y1="49.9484359%" x2="101.817232%" y2="49.9484359%" id="linearGradient-2">
      <stop stop-color="#E9CC84" offset="17%"></stop>
      <stop stop-color="#FFE6AB" offset="37%"></stop>
      <stop stop-color="#E9CC84" offset="63%"></stop>
      <stop stop-color="#E9CC84" offset="92%"></stop>
    </linearGradient>
  </defs>
  <g id="Design-FINAL" stroke="none" stroke-width="1" fill="none" fill-rule="evenodd">
    <g id="MC-BrandLogo-RGB-Gradient-Black" fill-rule="nonzero">
      <path d="M38.757764,50.2333968 C38.757764,48.5712027 40.150279,47.3363589 42.1890124,47.3363589 C42.9437915,47.3129651 43.6876503,47.4982611 44.313527,47.8655776 L43.8703241,48.5239954 C43.4013368,48.2363966 42.8370503,48.0898224 42.2633561,48.1065834 C40.747888,48.1065834 39.7328104,48.9488611 39.7328104,50.225943 C39.7328104,51.503025 40.7192943,52.3502719 42.2633561,52.3502719 C42.835393,52.3659965 43.399232,52.2289877 43.8789022,51.9577059 L44.313527,52.6086698 C43.6843838,52.9681418 42.9413581,53.1471476 42.1890124,53.1204964 C40.1216852,53.1204964 38.757764,51.8856526 38.757764,50.2333968 Z M53.6836945,47.4084121 L53.6836945,53.0484431 L52.7315231,53.0484431 L52.7315231,50.5787556 L48.9457124,50.5787556 L48.9457124,53.0484431 L47.9935409,53.0484431 L47.9935409,47.4084121 L48.9457124,47.4084121 L48.9457124,49.8408308 L52.7286637,49.8408308 L52.7286637,47.4084121 L53.6836945,47.4084121 Z M61.844347,51.8608067 L58.7190516,51.8608067 L58.1471768,53.0484431 L57.1406773,53.0484431 L59.9285666,47.4084121 L60.6319725,47.4084121 L63.4027056,53.0484431 L62.3847686,53.0484431 L61.844347,51.8608067 Z M59.0450202,51.1477278 L61.5098003,51.1477278 L60.2802696,48.5538105 L59.0450202,51.1477278 Z M72.6070295,53.0484431 L72.4983733,49.1103598 L70.4567805,52.2533727 L69.8391558,52.2533727 L67.8547504,49.0929677 L67.7346567,53.0484431 L66.7796259,53.0484431 L67.0198133,47.4084121 L67.637438,47.4084121 L70.13939,51.2868652 L72.7128263,47.4183505 L73.3218729,47.4183505 L73.5534822,53.0583815 L72.6070295,53.0484431 Z M82.5061811,49.3662731 C82.5061811,50.6085707 81.4253379,51.2992882 79.9012917,51.2992882 L78.6831985,51.2992882 L78.6831985,53.0385048 L77.7338865,53.0385048 L77.7338865,47.3984738 L79.9384636,47.3984738 C81.4453535,47.4084121 82.5061811,48.1314293 82.5061811,49.3662731 Z M81.5168378,49.3662731 C81.5168378,48.6358021 80.8706194,48.1537907 79.8927136,48.1537907 L78.6831985,48.1537907 L78.6831985,50.5688172 L79.8927136,50.5688172 C80.8934944,50.5613634 81.5282753,50.0892903 81.5282753,49.3588193 L81.5168378,49.3662731 Z M89.660334,51.8682604 L86.5493355,51.8682604 L85.9774608,53.0558969 L84.9709612,53.0558969 L87.7588505,47.4158659 L88.4622565,47.4158659 L91.2301302,53.0558969 L90.22649,53.0558969 L89.660334,51.8682604 Z M86.8610072,51.1551816 L89.3257873,51.1551816 L88.1105535,48.5538105 L86.8610072,51.1551816 Z M100.014126,50.367565 L100.014126,52.5192244 C99.2866914,52.9363621 98.4291517,53.148888 97.5579241,53.1279502 C95.5820969,53.1279502 94.1123788,51.8856526 94.1123788,50.2408506 C94.1123788,48.5960486 95.5820969,47.3438127 97.5836585,47.3438127 C98.350404,47.3178256 99.1069898,47.5030511 99.745345,47.8730314 L99.3107202,48.5314491 C98.8268606,48.2407892 98.2488486,48.0919415 97.6608616,48.1065834 C96.2311747,48.1065834 95.1131596,48.9811609 95.1131596,50.2333968 C95.1074872,50.8098572 95.3716783,51.3635673 95.8450938,51.7674358 C96.3185093,52.1713043 96.9604921,52.3906466 97.6236897,52.3751179 C98.1392201,52.3805198 98.6497945,52.2872084 99.1191421,52.1018124 L99.1191421,50.3625958 L100.014126,50.367565 Z M109.567294,47.4158659 L109.567294,53.1304348 L109.012575,53.1304348 L104.886499,48.906623 L104.886499,53.0708045 L103.954343,53.0708045 L103.954343,47.353751 L104.526218,47.353751 L108.632278,51.5775628 L108.632278,47.4084121 L109.567294,47.4158659 Z M118.205461,52.325426 L118.205461,53.0558969 L113.890667,53.0558969 L113.890667,47.4158659 L118.21118,47.4158659 L118.21118,48.1612445 L114.839979,48.1612445 L114.839979,49.8383462 L117.796571,49.8383462 L117.796571,50.5837247 L114.839979,50.5837247 L114.839979,52.3403335 L118.205461,52.325426 Z" id="Shape" fill="url(#linearGradient-1)"></path>
      <path d="M30.846369,23.9090018 C31.3114117,23.8920266 31.676297,23.5062127 31.6650245,23.043391 C31.6537519,22.5805694 31.2705119,22.2127897 30.8051886,22.2182417 C30.3398652,22.2236937 29.9654381,22.6003506 29.9651251,23.063308 C29.9759647,23.5379644 30.3691729,23.9153103 30.846369,23.9090018 L30.846369,23.9090018 Z M33.9633088,23.9090018 C34.4283515,23.8920266 34.7932368,23.5062127 34.7819642,23.043391 C34.7706916,22.5805694 34.3874517,22.2127897 33.9221283,22.2182417 C33.4568049,22.2236937 33.0823778,22.6003506 33.0820649,23.063308 C33.0929044,23.5379644 33.4861126,23.9153103 33.9633088,23.9090018 L33.9633088,23.9090018 Z M36.7827224,34.4858114 L36.7827224,37.3470751 L27.9844516,37.3470751 L27.9844516,37.237135 L29.2397283,36.2392164 L29.2397283,26.3305048 L27.9589494,25.2903015 L27.9589494,25.1803614 L36.3548516,25.1803614 L36.3548516,27.6215973 L36.2415083,27.6215973 L34.8700549,26.0063222 L31.4442547,26.0063222 L31.4442547,30.491318 L33.6346133,30.491318 L34.5923639,29.2002255 L34.6858721,29.2002255 L34.6858721,32.5830005 L34.5923639,32.5830005 L33.6261125,31.3144599 L31.435754,31.3144599 L31.435754,36.5295712 L35.2497548,36.5295712 L36.6665456,34.4914493 L36.7827224,34.4858114 Z M117.962001,25.2903015 L116.613216,26.3361428 L116.635885,37.3301613 L115.751807,37.3301613 L108.327824,27.8555725 L108.344825,36.1856557 L109.940132,37.2399539 L109.940132,37.3498941 L105.973117,37.3498941 L105.973117,37.2399539 L107.304901,36.1884747 L107.299233,26.7279809 C106.760853,26.1388142 106.03829,25.4397074 105.854107,25.2931205 L105.854107,25.1831803 L108.971047,25.1831803 L115.604461,33.8233513 L115.58746,26.3389618 L114.048825,25.2931205 L114.048825,25.1831803 L117.950667,25.1831803 L117.962001,25.2903015 Z M156,25.2903015 L154.651215,26.3361428 L154.676717,37.3301613 L153.806808,37.3301613 L146.377157,27.8555725 L146.396992,36.1856557 L147.989465,37.2399539 L147.989465,37.3498941 L144.030951,37.3498941 L144.030951,37.2399539 L145.359901,36.1884747 L145.340066,26.7279809 C144.882518,26.2252583 144.399223,25.746336 143.892106,25.2931205 L143.892106,25.1831803 L147.009046,25.1831803 L153.639627,33.8233513 L153.622625,26.3389618 L152.08399,25.2931205 L152.08399,25.1831803 L155.988666,25.1831803 L156,25.2903015 Z M89.9803829,30.7422071 L89.9803829,26.2769442 L88.7222727,25.2903015 L88.7222727,25.1803614 L93.4571875,25.1803614 L93.4571875,25.2903015 L92.1962437,26.2825822 L92.1962437,36.2533112 L93.4543539,37.228678 L93.4543539,37.3386182 L88.7194391,37.3386182 L88.7194391,37.2399539 L89.9803829,36.2476733 L89.9803829,31.5907198 L84.8997711,31.5907198 L84.8997711,36.2476733 L86.1607149,37.2399539 L86.1607149,37.3386182 L81.4229665,37.3386182 L81.4229665,37.228678 L82.6782432,36.2533112 L82.6782432,26.2825822 L81.4087986,25.2903015 L81.4087986,25.1803614 L86.146547,25.1803614 L86.146547,25.2903015 L84.8912704,26.2769442 L84.8912704,30.7422071 L89.9803829,30.7422071 Z M123.504487,25.1803355 L119.293784,25.1803355 L119.293784,25.2903015 L120.554728,26.2910391 L120.574563,36.2363974 L119.319287,37.228678 L119.319287,37.3386182 L124.068369,37.3386182 C127.936208,37.3386182 130.446761,34.6464932 130.438282,31.0663897 C130.42976,27.2410351 127.258982,25.1719044 123.504487,25.1803355 Z M123.844516,36.5408471 C122.830094,36.5408471 122.776256,36.4957435 122.776256,36.4957435 L122.753587,25.9922273 C122.753587,25.9922273 122.753587,25.9724945 123.116286,25.9696755 C125.836524,25.9696755 128.043884,27.8696674 128.049582,31.1735109 C128.058052,34.2941208 126.304065,36.5408471 123.844516,36.5408471 Z M97.313692,37.3386182 L94.1599157,37.3386182 L94.1599157,37.228678 L95.1516693,36.2392164 L99.2348603,24.9435671 L99.8015766,24.9435671 L104.272968,36.2194835 L105.267555,37.231497 L105.267555,37.3414372 L100.770662,37.3414372 L100.770662,37.231497 L101.949431,36.2251215 L100.611981,32.8113378 L97.3051913,32.8113378 L96.0980855,36.1941127 L97.313692,37.2230401 L97.313692,37.3386182 Z M100.300287,32.0163857 L98.8834962,28.4052734 L97.5885494,32.0163857 L100.300287,32.0163857 Z M21.3198678,36.7550895 C19.3363607,36.7550895 18.0159117,34.3758712 18.0159117,31.2468044 C18.0159117,28.1177376 19.3363607,25.7948988 21.3198678,25.7948988 C23.3033749,25.7948988 24.6238239,28.1149186 24.6238239,31.2383474 C24.6238239,34.3617763 23.3033749,36.7466326 21.3198678,36.7466326 L21.3198678,36.7550895 Z M21.3198678,24.9322912 C18.2255967,24.9322912 15.717877,27.7174425 15.717877,31.2270715 C15.717877,34.7367005 18.2255967,37.5782314 21.3198678,37.5782314 C24.4141388,37.5782314 26.9246921,34.7367005 26.9246921,31.2270715 C26.9246921,27.7174425 24.4169724,24.9322912 21.3198678,24.9322912 L21.3198678,24.9322912 Z M137.411705,36.7550895 C135.428198,36.7550895 134.110582,34.3758712 134.110582,31.2468044 C134.110582,28.1177376 135.428198,25.7948988 137.411705,25.7948988 C139.395212,25.7948988 140.715661,28.1149186 140.715661,31.2468044 C140.715661,34.3786901 139.395212,36.7550895 137.411705,36.7550895 Z M137.411705,24.9322912 C134.317434,24.9322912 131.809714,27.7174425 131.809714,31.2270715 C131.809714,34.7367005 134.317434,37.5782314 137.411705,37.5782314 C140.505976,37.5782314 143.016529,34.7367005 143.016529,31.2270715 C143.016529,27.7174425 140.50881,24.9322912 137.411705,24.9322912 L137.411705,24.9322912 Z M80.2130272,34.7620713 L80.3235369,34.8804684 C79.5754714,36.289958 78.4590402,37.5359467 76.0136593,37.5331325 C72.7692084,37.5331325 70.5731827,34.7141487 70.5703467,31.2157956 C70.5675155,27.7174425 73.0468994,25.1803614 76.1015003,25.1803614 L79.6491445,25.1803614 L79.6491445,28.5123946 L79.442293,28.5123946 C78.9832528,27.7146236 77.7676463,25.9753135 75.9258183,25.9471237 C75.7355185,25.9444553 75.5454925,25.9624147 75.359102,26.0006843 C73.5909471,26.305134 72.7578741,28.5123946 72.9873942,31.6189096 C73.2367494,34.9847707 75.1409162,36.4111741 77.2831039,36.1292762 C78.3843795,36.0188131 79.4153633,35.5397692 80.20736,34.7705282 L80.2130272,34.7620713 Z M63.3503833,35.4132555 L62.4748066,34.3589573 C62.9126109,33.5801067 63.2234453,32.7370911 63.3957206,31.8613418 L64.9541904,30.6435428 L64.9541904,30.4631282 L61.3300396,30.4631282 L61.3300396,30.6435428 L62.7099938,31.841609 C62.5768628,32.5024732 62.3325781,33.1362465 61.9874305,33.7162301 L58.8166527,29.8655046 L58.8393214,29.8514097 C59.8990809,29.1607598 60.9928434,28.4419202 60.9900098,27.1029051 C60.9871762,25.76389 59.8367421,24.8477218 58.2584372,24.8477218 C56.6064591,24.8477218 55.3625168,25.9217529 55.3653504,27.3425183 C55.3653504,28.188212 55.8130563,29.0902854 56.9521561,30.5392406 C55.6175391,31.4018482 54.0222327,32.4871552 54.0250625,34.4181559 C54.0250625,36.2561302 55.4418571,37.6768957 57.4933701,37.6740767 C58.9399849,37.6882103 60.3163903,37.0547869 61.2421986,35.9488615 L62.4011334,37.3273423 L65.4018963,37.3273423 L65.4018963,37.1159189 C64.923021,37.0059787 64.245795,36.5070194 63.3503833,35.4132555 Z M58.1734297,25.3184913 C58.9724997,25.3184913 59.451375,26.031693 59.4542086,27.2325781 C59.5032764,28.0801393 59.1446246,28.9004735 58.4879573,29.4426577 C57.4735351,28.1853931 57.0399971,27.3284234 57.0371505,26.5898509 C57.0343299,25.8512784 57.4933701,25.3184913 58.1734297,25.3184913 Z M58.077088,36.5352092 C56.7198024,36.5352092 55.8385585,35.4639971 55.8357249,33.8007994 C55.8357249,32.6957596 56.2352599,31.9233594 57.3120209,30.9818203 L60.7661569,35.2779445 C60.1126264,36.0871249 59.1203628,36.5510542 58.077088,36.5352092 Z M40.90275,37.3386182 L40.90275,37.228678 L42.2713699,36.2110266 L42.2713699,26.0063222 L39.8033204,26.0063222 L38.2845207,27.8555725 L38.1541759,27.8555725 L38.1541759,25.1859993 L48.5845897,25.1859993 L48.5845897,27.8555725 L48.4542449,27.8555725 L46.9354452,26.0119602 L44.4673956,26.0119602 L44.4673956,36.2166645 L45.8360155,37.234316 L45.8360155,37.3442562 L40.90275,37.3386182 Z M14.6977876,37.1976692 L14.6977876,37.3386182 L10.2490646,37.3386182 L10.2490646,37.1976692 L11.4051658,36.1771988 C11.3853308,35.8699301 10.5550914,27.652606 10.5125876,27.3058716 C10.3482399,27.6920717 7.43815163,34.1559908 7.17746213,34.7423385 L6.90827188,34.7423385 C6.79492862,34.4942683 3.09993824,27.5652177 3.09993824,27.5652177 L2.12518618,36.1039054 L3.57881353,37.1976692 L3.57881353,37.3386182 L0,37.3386182 L0,37.1976692 L1.2297744,36.157466 C1.2921132,35.4499022 2.30936898,26.4940056 2.30936898,26.4940056 L1.21844008,25.366414 L1.21844008,25.1803614 L4.3523813,25.1803614 L7.7356777,31.4469519 C8.05303883,30.7647589 9.40749083,27.7399944 10.5324227,25.1859993 L13.6096923,25.1859993 L13.6096923,25.3523191 L12.5187634,26.3558756 C12.5726014,26.9196715 13.5530207,35.9037578 13.5728557,36.1743798 L14.6977876,37.1976692 Z" id="Shape" fill="#fff"></path>
      <path d="M94.1290219,12.5920605 L94.1290219,15.4286599 L93.516605,15.4286599 L93.516605,13.1648136 L92.6660261,13.3911982 L92.4732282,12.981442 L92.4902398,12.981442 L93.7519319,12.6079074 L94.1290219,12.5920605 Z M97.2109529,12.5920605 L97.2109529,13.0448297 L98.9971687,13.0448297 L97.6589245,15.4014938 L97.6589245,15.4218684 L98.3252114,15.4218684 L99.765525,12.8478751 L99.765525,12.598852 L99.765525,12.5852689 L97.2109529,12.5920605 Z M104.732906,14.3601245 L104.732906,13.3436574 L104.123325,13.3436574 L104.123325,14.3601245 L103.014737,14.3601245 L103.80294,12.7301551 L103.80294,12.716572 L103.26991,12.5581028 L102.314427,14.484636 L102.314427,14.8038383 L104.120489,14.8038383 L104.120489,15.4286599 L104.730071,15.4286599 L104.730071,14.8038383 L105.10149,14.8038383 L105.10149,14.3510691 L104.732906,14.3601245 Z M109.422431,13.6583321 L110.295692,12.9180543 L110.295692,12.9180543 L110.295692,12.5965882 L107.984953,12.5965882 L107.984953,13.0493574 L109.45929,13.0493574 L108.461277,13.8824529 L108.608711,14.160906 L108.665416,14.1405314 C108.813149,14.0896675 108.972353,14.0634736 109.133235,14.0635606 C109.584041,14.0635606 109.830709,14.2333491 109.830709,14.5457599 C109.830709,14.8581707 109.547183,15.0347507 109.065188,15.0347507 C108.770036,15.037725 108.480254,14.9716166 108.231621,14.8445876 L108.174916,14.8106299 L107.925412,15.2045391 L107.925412,15.2045391 L107.970777,15.2294415 C108.311022,15.3834365 108.696831,15.4616226 109.08787,15.4558261 C109.938449,15.4558261 110.457302,15.0981384 110.457302,14.5185937 C110.476586,14.2920122 110.375246,14.0694508 110.178215,13.9056639 C109.981183,13.741877 109.70675,13.6520682 109.422431,13.6583321 L109.422431,13.6583321 Z M42.9298396,13.0719959 L42.9298396,12.6622397 L40.6956522,12.6622397 L40.6956522,15.3584807 L41.2627048,15.3584807 L41.2627048,14.3872906 L42.7342064,14.3872906 L42.7342064,13.9730067 L41.2627048,13.9730067 L41.2627048,13.0674682 L42.9298396,13.0719959 Z M47.0012775,15.3584807 L46.317979,15.3584807 L45.6205043,14.543496 L44.9343706,14.543496 L44.9343706,15.3562168 L44.367318,15.3562168 L44.367318,12.6622397 L45.5241054,12.6622397 C46.3520022,12.6622397 46.8651848,13.0244551 46.8651848,13.6107913 C46.8781769,13.9684661 46.6146532,14.2957757 46.2017332,14.4348314 L47.0012775,15.3584807 Z M44.9343706,14.1382675 L45.4730706,14.1382675 C45.9635711,14.1382675 46.2782854,13.9322575 46.2782854,13.6107913 C46.2782854,13.2893251 45.994759,13.069732 45.4957527,13.069732 L44.9287001,13.069732 L44.9343706,14.1382675 Z M51.2995364,15.3584807 L50.6899548,15.3584807 L50.4064285,14.8038383 L48.8782217,14.8038383 L48.5946954,15.3584807 L47.9907843,15.3584807 L48.0163017,15.3132038 L49.4339333,12.6622397 L49.8450464,12.6622397 L49.8450464,12.6826143 L51.2995364,15.3584807 Z M49.646578,13.321019 L49.0795254,14.4054014 L50.2136306,14.4054014 L49.646578,13.321019 Z M54.9598612,12.6622397 L54.9598612,14.5502875 L52.9354833,12.6350735 L52.5867459,12.6350735 L52.5867459,15.3516892 L53.1537985,15.3516892 L53.1537985,13.4817521 L55.1753412,15.383383 L55.1753412,15.383383 L55.518408,15.383383 L55.518408,12.6667674 L54.9598612,12.6622397 Z M59.6522217,14.7879914 C59.4148419,14.909552 59.1374495,14.9718206 58.8555128,14.9668353 C58.4136406,14.9840051 57.9958129,14.8055502 57.7684346,14.5025424 C57.5410564,14.1995346 57.5410564,13.8211858 57.7684346,13.518178 C57.9958129,13.2151702 58.4136406,13.0367153 58.8555128,13.0538851 C59.1370495,13.0451483 59.4142621,13.1112328 59.6437159,13.2417844 L59.6834096,13.2644228 L59.9499244,12.8999436 L59.9187365,12.8818328 C59.5949751,12.7063417 59.2097388,12.6175511 58.8186544,12.628282 C58.347462,12.6093745 57.8875967,12.7475578 57.5489251,13.0098184 C57.2102534,13.272079 57.0231945,13.6348611 57.0324386,14.0114921 C57.0179361,14.38917 57.203444,14.7542408 57.5434208,15.0170812 C57.8833977,15.2799217 58.3463607,15.416192 58.8186544,15.3924384 C59.2088527,15.4054824 59.5941296,15.319061 59.9187365,15.1456791 L59.9499244,15.1298322 L59.6890801,14.7698806 L59.6522217,14.7879914 Z M61.9204323,14.9509884 L61.9204323,14.1993914 L63.4202865,14.1993914 L63.4202865,13.7873713 L61.9119265,13.7873713 L61.9119265,13.0719959 L63.6130844,13.0719959 L63.6130844,12.6622397 L61.3448738,12.6622397 L61.3448738,15.3584807 L63.6272607,15.3584807 L63.6272607,14.9509884 L61.9204323,14.9509884 Z" id="Shape" fill="#fff"></path>
      <path d="M87.4353326,16.0975305 C87.4353326,16.2757077 87.2860201,16.420585 87.1007758,16.4221344 L69.8505568,16.4221344 C69.761316,16.4221344 69.6757723,16.3878486 69.6129457,16.3268911 C69.5501191,16.2659335 69.5152171,16.1833602 69.5159868,16.0975305 C69.5152091,16.0119579 69.5502029,15.9296688 69.6131167,15.8691575 C69.6760306,15.8086461 69.7615867,15.7749886 69.8505568,15.7757492 L87.1007758,15.7757492 C87.2855464,15.7757492 87.4353326,15.9198156 87.4353326,16.0975305 L87.4353326,16.0975305 Z M87.1007758,12.493016 L69.8505568,12.493016 C69.761316,12.493016 69.6757723,12.5273017 69.6129457,12.5882593 C69.5501191,12.6492168 69.5152171,12.7317901 69.5159864,12.8176198 C69.5151937,12.90294 69.5502787,12.984951 69.6132828,13.0450176 C69.6762869,13.1050842 69.7618597,13.1381056 69.8505568,13.1365785 L87.1007758,13.1365785 C87.2844064,13.1365852 87.4337218,12.9942314 87.4353326,12.8176198 C87.4353326,12.6394426 87.2860201,12.4945653 87.1007758,12.493016 L87.1007758,12.493016 Z M68.0779998,6.672727 C68.0791793,6.43475345 67.9308921,6.21962945 67.7025293,6.12803288 C67.4741665,6.03643631 67.210904,6.08648725 67.0359484,6.2547619 C66.8609928,6.42303654 66.8089547,6.67624599 66.9041879,6.89588838 C66.9994211,7.11553077 67.2230861,7.25815539 67.4705078,7.2570209 C67.6318622,7.25776922 67.786835,7.19645313 67.9009311,7.08671392 C68.0150273,6.97697472 68.0787778,6.82791984 68.0779998,6.672727 Z M67.1623634,8.03041807 C67.1623634,8.32193283 67.4080653,8.55825223 67.711154,8.55825223 C68.0142426,8.55825223 68.2599445,8.32193283 68.2599445,8.03041807 C68.2599445,7.73890331 68.0142426,7.50258391 67.711154,7.50258391 C67.4092077,7.50258391 67.1639781,7.73718359 67.1623634,8.02759543 L67.1623634,8.03041807 Z M67.9459307,5.84570032 C68.2522547,5.84724748 68.5018905,5.60966733 68.5035177,5.31504083 C68.5051292,5.02041433 68.2581188,4.780309 67.9517948,4.77874111 C67.6454709,4.77718851 67.3958305,5.01476418 67.3942054,5.30939065 C67.3941378,5.5996697 67.6353903,5.83672662 67.9371266,5.84287009 L67.9459307,5.84570032 Z M76.8674458,2.74078592 C76.9906674,2.75207315 77.1098937,2.69521578 77.1751446,2.59404865 C77.2403954,2.49288151 77.2403954,2.36488633 77.1751446,2.26371919 C77.1098937,2.16255206 76.9906674,2.10569469 76.8674458,2.11698192 C76.7442242,2.10569469 76.6249978,2.16255206 76.559747,2.26371919 C76.4944962,2.36488633 76.4944962,2.49288151 76.559747,2.59404865 C76.6249978,2.69521578 76.7442242,2.75207315 76.8674458,2.74078592 L76.8674458,2.74078592 Z M72.3010387,5.4787492 C72.082132,5.54810787 71.928752,5.73813045 71.913154,5.95929953 C71.8975561,6.18046861 72.0228513,6.3886724 72.2300146,6.48582852 C72.4371778,6.58298465 72.6848907,6.5497155 72.8564587,6.40169377 C73.0280266,6.25367205 73.0892306,6.02042043 73.0112383,5.81182102 C72.9644299,5.6758615 72.8630259,5.56355762 72.7296206,5.49993235 C72.5962154,5.43630708 72.441893,5.42664678 72.3010387,5.47310391 L72.3010387,5.4787492 Z M68.890907,4.85212255 C69.1794085,4.85212255 69.4132851,4.62717681 69.4132851,4.34969218 C69.4132851,4.07220754 69.1794085,3.8472618 68.890907,3.8472618 C68.6024055,3.8472618 68.3685288,4.07220754 68.3685288,4.34969218 C68.3717448,4.62496968 68.6046821,4.84649465 68.890907,4.84647727 L68.890907,4.85212255 Z M70.0647905,4.2876023 C70.2692138,4.28873718 70.45417,4.17117778 70.5332243,3.9898544 C70.6122786,3.80853103 70.56982,3.59924991 70.4256906,3.45981358 C70.2815611,3.32037725 70.0642222,3.27832042 69.8752421,3.35329736 C69.686262,3.42827429 69.5629553,3.60547917 69.5629553,3.80209952 C69.5661261,4.06739834 69.7889586,4.28172169 70.0647905,4.2847714 L70.0647905,4.2876023 Z M71.2973683,4.0053384 C71.4925618,4.00647109 71.6691417,3.89410636 71.7443883,3.72087337 C71.8196348,3.54764038 71.7786444,3.34785032 71.6406191,3.21509577 C71.5025939,3.08234123 71.2948716,3.04291607 71.1147608,3.1152892 C70.93465,3.18766232 70.8178241,3.35749924 70.8190018,3.54523905 C70.8284441,3.79317164 71.0394233,3.98986974 71.2973683,3.99121657 L71.2973683,4.0053384 Z M72.3215817,5.29527743 C72.5331315,5.30995216 72.7354773,5.20971717 72.8459042,5.0355466 C72.9563311,4.86137604 72.9563311,4.64246145 72.8459042,4.46829088 C72.7354773,4.29412031 72.5331315,4.19388533 72.3215817,4.20856005 C72.1100319,4.19388533 71.907686,4.29412031 71.7972592,4.46829088 C71.6868323,4.64246145 71.6868323,4.86137604 71.7972592,5.0355466 C71.907686,5.20971717 72.1100319,5.30995216 72.3215817,5.29527743 L72.3215817,5.29527743 Z M72.8028739,4.10976756 C73.102721,4.10976756 73.3457951,3.87597564 73.3457951,3.58757869 C73.3457951,3.29918174 73.102721,3.06538982 72.8028739,3.06538982 C72.5030269,3.06538982 72.2599528,3.29918174 72.2599528,3.58757869 C72.2679044,3.87044945 72.508665,4.09575772 72.8028739,4.09565435 L72.8028739,4.10976756 Z M73.7361114,3.30249179 C74.0213713,3.30249179 74.2526201,3.08007353 74.2526201,2.8057067 C74.2526201,2.53133987 74.0213713,2.30892161 73.7361114,2.30892161 C73.4508515,2.30892161 73.2196026,2.53133987 73.2196026,2.8057067 C73.2290977,3.07343781 73.4575888,3.28571165 73.7361114,3.28555593 L73.7361114,3.30249179 Z M74.8542355,2.9383709 C75.0965835,2.9305685 75.2880647,2.73799379 75.2853602,2.50478414 C75.2826557,2.27157449 75.0867562,2.08315564 74.8442875,2.08055441 C74.6018188,2.07795318 74.4015983,2.26212241 74.3934861,2.49521602 C74.3934207,2.61149296 74.4424268,2.72281595 74.5292832,2.80369516 C74.6161397,2.88457438 74.7334074,2.9280826 74.8542355,2.92425769 L74.8542355,2.9383709 Z M75.9254042,2.82828784 C76.1472491,2.82368159 76.3245763,2.64936365 76.3245247,2.43594053 C76.321283,2.22276774 76.1392724,2.0523326 75.9176287,2.05492231 C75.695985,2.05751202 75.5183328,2.23214951 75.5204762,2.44533512 C75.5226196,2.65852074 75.7037499,2.82982121 75.9254042,2.82828784 L75.9254042,2.82828784 Z M90.1117942,6.672727 C90.1129754,6.91044421 89.9650072,7.12539047 89.7370057,7.21715392 C89.5090043,7.30891737 89.2459721,7.25938587 89.0707843,7.09169801 C88.8955965,6.92401015 88.8428315,6.67126389 88.9371383,6.45152932 C89.0314451,6.23179475 89.2542096,6.08843999 89.5013677,6.08843999 C89.8373503,6.08843999 90.1101718,6.34957815 90.1117942,6.672727 L90.1117942,6.672727 Z M89.2607215,7.50258391 C88.9576329,7.50258391 88.711931,7.73890331 88.711931,8.03041807 C88.711931,8.32193283 88.9576329,8.55825223 89.2607215,8.55825223 C89.5638102,8.55825223 89.8095121,8.32193283 89.8095121,8.03041807 C89.8110874,7.88971012 89.7538697,7.75428341 89.6506942,7.65451712 C89.5475186,7.55475082 89.4070223,7.49899657 89.2607215,7.49975351 L89.2607215,7.50258391 Z M88.4683501,5.30939065 C88.4699689,5.01513055 88.7190109,4.77770056 89.0249562,4.77873378 C89.3309016,4.77977376 89.5781982,5.01888543 89.5776624,5.3131492 C89.5771247,5.60741296 89.3289574,5.84569273 89.0230101,5.84569273 C88.7189768,5.83951957 88.4768032,5.59903944 88.480089,5.306568 L88.4683501,5.30939065 Z M87.5615251,4.34686954 C87.5615384,4.14314446 87.6894562,3.95959308 87.8853771,3.8821688 C88.081298,3.80474453 88.3064352,3.8487752 88.4553614,3.99364215 C88.6042876,4.1385091 88.6475196,4.35553271 88.5648128,4.54308521 C88.482106,4.73063771 88.289834,4.85158896 88.0780338,4.84929991 C87.9397553,4.84855701 87.807492,4.79481479 87.7105426,4.69997805 C87.6135931,4.60514131 87.5599604,4.47703862 87.5615251,4.34404689 L87.5615251,4.34686954 Z M86.4052498,3.80209952 C86.4068753,3.53553394 86.6328649,3.32070638 86.9100139,3.32225832 C87.1871628,3.32382714 87.4105222,3.54118459 87.4089118,3.80775021 C87.4072838,4.07431583 87.1812993,4.28914835 86.9041503,4.28760242 C86.7705415,4.28685134 86.6427568,4.23489344 86.5491095,4.14323271 C86.4554622,4.05157198 86.4036848,3.92777689 86.4052498,3.79927688 L86.4052498,3.80209952 Z M85.6745072,3.99403922 C85.9379086,3.99093048 86.1491277,3.78358467 86.1469795,3.53023108 C86.1448313,3.2768775 85.9301243,3.07287258 85.6667053,3.0738923 C85.4032863,3.07491969 85.1903001,3.28058647 85.1902803,3.53394848 C85.1935031,3.78850477 85.4098298,3.99278773 85.6745072,3.99121657 L85.6745072,3.99403922 Z M79.7669382,2.42464996 C79.7633691,2.55411372 79.8415452,2.67280108 79.9647731,2.72500386 C80.088001,2.77720664 80.2318144,2.75256029 80.328712,2.66263304 C80.4256095,2.5727058 80.4563526,2.43535218 80.4065114,2.31504172 C80.3566702,2.19473125 80.2361404,2.11535088 80.101495,2.11415927 C79.9210745,2.11099849 79.7717418,2.24832919 79.7669382,2.42182731 L79.7669382,2.42464996 Z M83.9694414,5.81182102 C83.8894145,5.99071866 83.9189242,6.19752488 84.046103,6.34907076 C84.1732818,6.50061663 84.3772305,6.57199885 84.5759293,6.53451044 C84.7746282,6.49702202 84.9354253,6.35682338 84.9936548,6.17029663 C85.0736816,5.99139899 85.0441719,5.78459277 84.9169931,5.63304689 C84.7898143,5.48150102 84.5858657,5.41011879 84.3871668,5.44760721 C84.1884679,5.48509563 84.0276708,5.62529427 83.9694414,5.81182102 Z M84.0868297,4.74768478 C84.0884485,5.04818059 84.3427463,5.29066556 84.6551749,5.28963222 C84.9676035,5.28859225 85.2201557,5.04442553 85.2196198,4.74392613 C85.2190821,4.44342672 84.965659,4.20009616 84.6532285,4.20009212 C84.5022295,4.19858716 84.3567943,4.25484136 84.2489211,4.35647787 C84.1410478,4.45811437 84.0795743,4.59680645 84.0780256,4.74203949 L84.0868297,4.74768478 Z M84.1778057,4.10129963 C84.4776528,4.10129963 84.7207268,3.86750771 84.7207268,3.57911076 C84.7207268,3.29071381 84.4776528,3.05692189 84.1778057,3.05692189 C83.8779586,3.05692189 83.6348845,3.29071381 83.6348845,3.57911076 C83.6381015,3.86530067 83.8802359,4.09567107 84.1778057,4.09565435 L84.1778057,4.10129963 Z M83.2386988,3.2968465 C83.5235757,3.2968465 83.7546619,3.07499489 83.7551993,2.80099695 C83.7557348,2.52699902 83.525519,2.30431628 83.2406442,2.30327625 C82.9557694,2.30224348 82.7238087,2.52324478 82.7221901,2.79723877 C82.7300557,3.0670194 82.9581134,3.28262955 83.2386988,3.28555593 L83.2386988,3.2968465 Z M82.1235095,2.92990297 C82.3041926,2.93104631 82.4677465,2.82724169 82.5377162,2.66701371 C82.6076858,2.50678574 82.5702493,2.32178622 82.4429066,2.19849521 C82.315564,2.0752042 82.1234708,2.0379769 81.9564231,2.10421561 C81.7893755,2.17045432 81.6803684,2.32707409 81.6803684,2.5008613 C81.6819816,2.73515252 81.8799109,2.92426283 82.1235095,2.92425769 L82.1235095,2.92990297 Z M81.0552754,2.81981991 C81.2777973,2.81672357 81.4560318,2.6415138 81.4543958,2.4274726 C81.4365777,2.22743057 81.2625541,2.07377859 81.0538081,2.07377859 C80.845062,2.07377859 80.6710384,2.22743057 80.6532203,2.4274726 C80.6548188,2.64040214 80.833892,2.81263717 81.0552754,2.81417463 L81.0552754,2.81981991 Z M78.4844704,4.46542052 C78.6568485,4.46542052 78.8121957,4.36538977 78.8778844,4.21210431 C78.9435731,4.05881885 78.9066252,3.88255962 78.7843144,3.76573078 C78.6620037,3.64890194 78.4784952,3.61458557 78.3195823,3.67882515 C78.1606694,3.74306472 78.0577488,3.89316833 78.0589376,4.05895999 C78.0637297,4.28168711 78.2528509,4.45982292 78.4844704,4.45977524 L78.4844704,4.46542052 Z M78.4844704,5.59447754 C78.7551432,5.59447754 78.9745668,5.38343295 78.9745668,5.12309624 C78.9745668,4.86275953 78.7551432,4.65171493 78.4844704,4.65171493 C78.2137976,4.65171493 77.994374,4.86275953 77.994374,5.12309624 C77.994374,5.38343295 78.2137976,5.59447754 78.4844704,5.59447754 L78.4844704,5.59447754 Z M78.4844704,3.48031827 C78.6163416,3.49198205 78.7437271,3.43090265 78.813415,3.32259435 C78.883103,3.21428604 78.883103,3.07738422 78.813415,2.96907591 C78.7437271,2.86076761 78.6163416,2.79968821 78.4844704,2.81135199 C78.3525992,2.79968821 78.2252137,2.86076761 78.1555258,2.96907591 C78.0858378,3.07738422 78.0858378,3.21428604 78.1555258,3.32259435 C78.2252137,3.43090265 78.3525992,3.49198205 78.4844704,3.48031827 L78.4844704,3.48031827 Z M79.7874845,1.25043065 C79.7886687,1.75757959 79.4719544,2.2154268 78.9851479,2.41029627 C78.4983413,2.60516574 77.9374125,2.49864056 77.5641453,2.14043571 C77.1908781,1.78223087 77.0788591,1.24296354 77.2803672,0.774308247 C77.4818754,0.305652959 77.957185,0 78.4844704,0 C79.1972826,-6.26025643e-05 79.7778486,0.550787638 79.7874845,1.23631744 L79.7874845,1.25043065 Z M89.7889691,9.34859214 C89.5606782,9.31192081 89.3271034,9.37272205 89.1492026,9.51512805 C88.943773,9.65626018 88.4360683,10.1332868 88.4360683,10.1332868 C88.4859584,10.8050757 88.2541164,11.2962155 87.5761986,11.3583136 L87.2181641,11.8155817 C87.3326178,11.8663893 87.5497862,12.097846 87.4147896,12.097846 L69.5306735,12.097846 C69.3956769,12.097846 69.6157801,11.8522761 69.7331684,11.8155817 L69.3751339,11.3583136 C68.7001509,11.2962155 68.4683089,10.7937851 68.5152642,10.1332868 C68.5152642,10.1332868 68.0075596,9.65626018 67.80213,9.51512805 C67.6242292,9.37272205 67.3906543,9.31192081 67.1623634,9.34859214 C67.2517458,9.15477853 67.4557431,9.03369059 67.6759375,9.04374675 C67.9510043,9.04106501 68.2115654,9.16219373 68.3802676,9.37117328 C68.6121096,9.59698469 68.9437317,9.9357018 68.9437317,9.9357018 L69.1579655,9.69859982 C69.2372026,9.58004883 69.3223092,9.22439587 69.1579655,9.09173167 C69.1080754,9.04939203 69.1403572,9.01552032 69.1843779,9.01552032 C69.3480596,9.02014315 69.4977471,9.10545959 69.5805636,9.24133173 C69.6613556,9.35509289 69.7218579,9.48101625 69.7595808,9.61392054 C69.9265314,9.60861128 70.0885715,9.66871122 70.2085913,9.78045645 C70.3655996,9.96395107 70.4329531,10.2035398 70.3934779,10.4381322 C70.5219881,10.5338976 70.6322129,10.6504194 70.7192306,10.7824946 C70.8019827,10.9622546 70.8019827,11.1672631 70.7192306,11.3470231 C70.6986877,11.3921854 70.654667,11.4006533 70.6341241,11.3470231 C70.5452555,11.1582499 70.3559998,11.0314799 70.141093,11.0167739 C69.8212097,11.0167739 69.7008866,11.0816947 69.7096907,11.1663739 C69.8875566,11.4686341 70.2072526,11.6687118 70.5666257,11.702676 C70.8443817,11.7342232 71.1155254,11.6060384 71.2592171,11.3752495 C71.3684562,11.2200802 71.421095,11.0344418 71.4088872,10.8474153 C71.4088872,10.8474153 71.0244403,10.8982229 70.8072719,10.4099057 C70.6341241,10.0260264 70.7427083,9.76916588 70.9011826,9.68448661 C71.1036775,9.58004883 71.4235608,9.74093946 71.5761656,10.028849 C71.8256159,10.5030529 71.6319251,10.7486229 71.6319251,10.7486229 C71.8890065,11.0871415 72.3544616,11.2110428 72.7559186,11.047823 C73.4397058,10.8135436 73.105149,9.58287148 73.105149,9.58287148 C73.105149,9.58287148 72.9085235,9.52641862 72.8116781,9.58287148 C72.7148327,9.63932433 72.6884203,9.86513573 72.5974443,10.0598981 C72.529946,10.2038528 72.4096229,10.4296642 72.2570181,10.4296642 C72.1543033,10.4296642 71.9635472,10.0937698 71.9635472,9.82844138 C71.6876846,9.77481117 71.4646467,9.59980733 71.5556227,9.09455431 C71.5556227,9.09455431 71.2269353,8.74736928 71.2621518,8.5300258 C71.2621518,8.49615409 71.4470384,8.42276539 71.7111622,8.4566371 C71.9279629,8.49724441 72.1409495,8.55482991 72.3479941,8.62881829 C72.3478111,8.52967021 72.3204822,8.43231711 72.2687569,8.34655404 C72.0686317,8.19231235 71.8803227,8.02440073 71.7052928,7.84412366 C71.5996433,7.68323304 71.4558426,7.4489537 71.5732309,7.375565 C71.7280993,7.29622149 71.8997115,7.25181967 72.0750661,7.24572344 C72.1405903,7.14796257 72.2359111,7.07205479 72.3479941,7.02837996 L72.3773411,7.02837996 C72.4941331,6.99480337 72.6185837,6.99480337 72.7353756,7.02837996 C72.8783821,6.92975103 73.0430575,6.86407834 73.2166679,6.83644027 C73.3575339,6.81950441 73.4044893,7.0904781 73.4279669,7.27959515 C73.4066847,7.53998387 73.3605126,7.79793385 73.2900356,8.05017657 C73.3054724,8.15233078 73.3467936,8.24926567 73.4103587,8.33244082 C73.491483,8.12693939 73.5999954,7.93243416 73.7331767,7.7537991 C73.8251689,7.62292346 73.9743709,7.53973242 74.1381665,7.5279877 C74.2320772,7.54774619 74.3817473,7.90904444 74.3582697,8.22518041 C74.6528408,8.39320702 74.7639343,8.75060605 74.6135893,9.04656939 C74.7397818,9.23568644 74.8336925,9.6110979 74.7339124,9.74658474 C74.6752182,9.82561874 74.3729432,9.78892438 74.10295,9.64496961 C73.9063245,9.54053184 73.7419808,9.36270536 73.6304619,9.36270536 C73.5189429,9.36270536 73.3927504,9.52359598 73.3927504,9.52359598 C73.3927504,9.52359598 73.9327369,10.4974077 74.5930464,10.5058756 C74.8671433,10.5345069 75.1410619,10.4504462 75.3472666,10.2744189 C75.5078328,10.1549169 75.6132134,9.97957006 75.6407375,9.78610174 C75.3466043,9.66340096 75.1499743,9.39119728 75.1330328,9.08326374 C75.084927,8.93261281 75.1044845,8.76947931 75.186976,8.63331231 C75.2694674,8.49714532 75.4073823,8.4003424 75.5673697,8.36631253 C75.8985935,8.37388783 76.1736915,8.61442692 76.2130057,8.93084105 C76.2905514,9.21727712 76.1732099,9.51974357 75.9195348,9.68730925 C76.0711223,10.1043598 76.5102447,10.3582466 76.9642912,10.2913548 C77.286761,10.2944177 77.5994888,10.1851322 77.8447039,9.98368672 C78.2702366,9.67319604 78.296649,8.8546297 78.296649,8.8546297 C78.1863371,8.79887856 78.0632103,8.77072835 77.9386145,8.77277306 C77.8036179,8.7953542 77.7009031,9.02963353 77.4984082,9.19052416 C77.3111576,9.38429665 77.0562191,9.50488843 76.7823392,9.52924127 C76.6590815,9.52924127 76.5446278,9.00140711 76.6414732,8.73890135 C76.401118,8.49247944 76.3694762,8.11908324 76.5651708,7.83847838 C76.5651708,7.83847838 76.4037618,7.29088572 76.5475625,7.12152717 C76.5915832,7.07354224 76.7617963,7.03684789 77.0582019,7.17798002 C77.3134709,7.32134665 77.5533336,7.48870098 77.7742708,7.67758775 C77.7742708,7.67758775 77.8505733,7.46588956 77.7918791,7.36991971 C77.6390451,7.12502238 77.5037352,6.87039502 77.3868893,6.60780622 C77.3223257,6.41586653 77.2518927,6.13360227 77.4250405,6.1025532 C77.6377639,6.07159103 77.8551006,6.08997857 78.0589376,6.15618341 C78.1736731,6.06487629 78.3153471,6.0105682 78.4639274,6.00093807 L78.4639274,6.00093807 C78.6125078,6.0105682 78.7541818,6.06487629 78.8689173,6.15618341 C79.0727307,6.0898708 79.2900945,6.07148096 79.5028144,6.1025532 C79.6759622,6.13360227 79.6055292,6.41586653 79.5409656,6.60780622 C79.4241196,6.87039502 79.2888097,7.12502238 79.1359758,7.36991971 C79.0772816,7.46588956 79.153584,7.67758775 79.153584,7.67758775 C79.3745213,7.48870098 79.614384,7.32134665 79.869653,7.17798002 C80.1631239,7.03684789 80.3392064,7.07354224 80.3773576,7.12152717 C80.5240931,7.29088572 80.3773576,7.83847838 80.3773576,7.83847838 C80.5700593,8.12026508 80.5373225,8.4922748 80.2981205,8.73890135 C80.3949659,9.00140711 80.2805123,9.52077334 80.1572545,9.52924127 C79.883875,9.50605795 79.6294441,9.38521097 79.4441202,9.19052416 C79.2386906,9.02963353 79.1330411,8.7953542 79.0009792,8.77277306 C78.8763282,8.77023434 78.7530748,8.79841348 78.6429447,8.8546297 C78.6429447,8.8546297 78.6693571,9.67037339 79.0948899,9.98368672 C79.3398317,10.1855826 79.6527415,10.2949318 79.9753025,10.2913548 C80.4301207,10.3585391 80.8702377,10.10479 81.0229936,9.68730925 C80.7693185,9.51974357 80.651977,9.21727712 80.7295227,8.93084105 C80.7700277,8.61501871 81.0444343,8.37508424 81.3751587,8.36631253 C81.5293427,8.39856435 81.6635319,8.48916656 81.7474571,8.61768186 C81.8313823,8.74619716 81.8579742,8.90180047 81.8212344,9.04939203 C81.804293,9.35732557 81.6076629,9.62952925 81.3135298,9.75223003 C81.3410538,9.94569835 81.4464345,10.1210452 81.6070007,10.2405472 C81.8141072,10.417028 82.0891177,10.5010967 82.3641556,10.4720039 C83.0244651,10.4720039 83.5615168,9.48972427 83.5615168,9.48972427 C83.5615168,9.48972427 83.4353243,9.34012422 83.3238054,9.32883365 C83.2122865,9.31754308 83.0450081,9.50101484 82.8513173,9.6110979 C82.581324,9.75505267 82.2819837,9.79174702 82.2232896,9.71271303 C82.1205747,9.57722619 82.2232896,9.20181473 82.3406779,9.01269768 C82.1903329,8.71673434 82.3014265,8.35933531 82.5959976,8.1913087 C82.5695852,7.87517273 82.7221901,7.51387448 82.8161008,7.49411598 C82.9798963,7.50586071 83.1290984,7.58905175 83.2210906,7.71992739 C83.3542719,7.89856245 83.4627843,8.09306768 83.5439086,8.29856911 C83.6074736,8.21539396 83.6487948,8.11845907 83.6642316,8.01630486 C83.5937547,7.76406214 83.5475826,7.50611216 83.5263003,7.24572344 C83.549778,7.05660639 83.5967333,6.7856327 83.7405341,6.80256856 C83.913091,6.8307167 84.0766955,6.8963626 84.2188916,6.99450825 C84.3356836,6.96093166 84.4601341,6.96093166 84.5769261,6.99450825 L84.6062732,6.99450825 C84.7175909,7.0394074 84.8125692,7.1150424 84.8792011,7.21185173 C85.0545557,7.21794796 85.226168,7.26234978 85.3810363,7.34169329 C85.4984247,7.41508199 85.354624,7.64936133 85.2489744,7.81025195 C85.0744209,7.99200139 84.885016,8.16001514 84.6825756,8.31268233 C84.6326231,8.39900793 84.6063629,8.49615171 84.6062732,8.59494658 C84.8133177,8.5209582 85.0263043,8.4633727 85.243105,8.42276539 C85.5072288,8.38889367 85.6833114,8.46228238 85.6921155,8.49615409 C85.7361361,8.72478814 85.3986446,9.0606826 85.3986446,9.0606826 C85.4896206,9.56593562 85.2665827,9.74093946 84.9907201,9.79456967 C84.9731118,10.0598981 84.7911599,10.3957925 84.6972492,10.3957925 C84.547579,10.3957925 84.4243212,10.1699811 84.3568229,10.0260264 C84.2687817,9.83408666 84.2394346,9.60262997 84.1425892,9.54899976 C84.0457438,9.49536956 83.8491183,9.54899976 83.8491183,9.54899976 C83.8491183,9.54899976 83.5145615,10.7796719 84.1983487,11.0139513 C84.6006821,11.1775809 85.0671906,11.0537226 85.3252769,10.7147511 C85.3252769,10.7147511 85.1286514,10.4691812 85.3781016,9.99497729 C85.5307065,9.71271303 85.8505898,9.54617712 86.0530847,9.6506149 C86.211559,9.73529417 86.3230779,9.99215465 86.1469954,10.376034 C85.9298269,10.8643512 85.54538,10.8135436 85.54538,10.8135436 C85.5340316,11.0008918 85.5877106,11.1865583 85.6979849,11.3413778 C85.8396169,11.5728223 86.1104882,11.7014232 86.3876415,11.6688043 C86.7477516,11.634796 87.068322,11.4348557 87.2475112,11.1325022 C87.2475112,11.047823 87.1330576,10.9772569 86.816109,10.9829022 C86.6001209,10.9966027 86.4095038,11.123529 86.3201432,11.3131514 C86.2996002,11.3667816 86.2555796,11.3583136 86.2379714,11.3131514 C86.1533438,11.1337772 86.1533438,10.927997 86.2379714,10.7486229 C86.3232751,10.6161728 86.4326166,10.499534 86.5607893,10.4042605 C86.5239653,10.1698071 86.5910303,9.93124429 86.745676,9.74658474 C86.86588,9.63511707 87.0277931,9.57506421 87.1946865,9.58004883 C87.2324094,9.44714454 87.2929116,9.32122118 87.3737037,9.20746002 C87.4565201,9.07158788 87.6062077,8.98627144 87.7698894,8.98164861 C87.8168447,8.98164861 87.8491265,9.01552032 87.7963018,9.05785996 C87.6260887,9.19052416 87.7111952,9.54617712 87.7963018,9.66472811 L88.0076008,9.90183008 C88.0076008,9.90183008 88.3392229,9.56311298 88.5710649,9.33730157 C88.7379548,9.12617941 88.9997085,9.00449629 89.2753951,9.00987504 C89.5006423,9.00303262 89.7061194,9.13290418 89.7889691,9.33447893 L89.7889691,9.34859214 Z M73.1374308,8.63728622 C73.0464548,8.38042575 72.8615681,8.20542191 72.7236368,8.25058419 C72.5857055,8.29574647 72.5475543,8.53284844 72.6385302,8.8151127 C72.7295062,9.09737696 72.9143929,9.24697701 73.0523242,9.20181473 C73.1902555,9.15665245 73.2196026,8.88285612 73.1374308,8.62317301 L73.1374308,8.63728622 Z M78.7456595,7.92033501 C78.7456595,7.63807075 78.6282711,7.42637256 78.4815357,7.42637256 C78.3348002,7.42637256 78.2174119,7.64653868 78.2174119,7.92033501 C78.2174119,8.19413134 78.3348002,8.4171201 78.4815357,8.4171201 C78.6282711,8.4171201 78.7456595,8.18001813 78.7456595,7.9062218 L78.7456595,7.92033501 Z M83.8579224,9.12842602 C83.9987884,9.17076566 84.1836751,8.99858447 84.2746511,8.73890135 C84.3656271,8.47921824 84.3274758,8.23364833 84.1895445,8.17437284 C84.0516132,8.11509735 83.8637918,8.3042144 83.7728159,8.56389751 C83.6818399,8.82358063 83.7199911,9.06915053 83.8579224,9.11431281 L83.8579224,9.12842602 Z M75.9342084,3.68354853 L76.2981123,3.68354853 C76.638407,3.68908023 76.977377,3.64141563 77.3017827,3.54241641 L77.3340645,3.52830319 C77.5567339,3.40600795 77.7498067,3.23955146 77.9004633,3.03998603 L77.7918791,3.03998603 C77.2988038,3.23495257 76.7695224,3.33100352 76.2364834,3.32225029 L75.9958372,3.32225029 C75.2064005,3.32225029 74.1264277,3.34765407 73.5013347,4.23960912 C73.170973,4.74791435 73.1142152,5.37780293 73.3487298,5.93319465 C73.4318418,5.81649153 73.552462,5.72923305 73.6920907,5.68480211 C73.5547578,5.25582469 73.6168119,4.7906974 73.8623039,4.40896767 C74.3641391,3.68637118 75.2738988,3.67790325 75.9400778,3.66943532 L75.9342084,3.68354853 Z M83.5644515,5.97553429 C83.8112312,5.42667046 83.7708914,4.79749098 83.4558673,4.28194876 C82.8513173,3.3758805 81.7713444,3.3363635 80.9848424,3.30813707 L80.7999557,3.30813707 L80.7441963,3.30813707 C80.210992,3.30815324 79.6835077,3.2024571 79.19467,2.99764639 L79.0890204,2.99764639 C79.2338955,3.20102663 79.4231898,3.37153269 79.6436804,3.49725413 C79.6527853,3.50392051 79.6626272,3.50960017 79.6730275,3.51418998 C79.9960471,3.62110105 80.3350917,3.67640418 80.676698,3.67790325 L81.0376672,3.67790325 C81.7009114,3.69766175 82.6136058,3.72871082 83.0919634,4.44566202 C83.3291261,4.83332498 83.379461,5.3009718 83.2298947,5.72714174 C83.3685552,5.76730999 83.4900168,5.84948236 83.5761904,5.96142108 L83.5644515,5.97553429 Z M71.2826947,4.67994136 C71.2823401,4.54028524 71.325251,4.40369363 71.4059525,4.28759404 C70.5891402,4.34351324 69.8167099,4.66618155 69.2166596,5.20213023 C68.4154841,5.95577579 68.2570098,7.14410831 68.7617798,8.64010886 L68.7823227,8.702207 C68.8509398,8.56170918 68.9726901,8.45167449 69.122749,8.39453896 C69.122749,8.36348989 69.0992713,8.3239729 69.0611201,8.20542191 C68.9445281,7.81437249 68.8842936,7.40978145 68.8821028,7.00297618 C68.9173193,5.72149646 69.8564262,4.80978291 71.2944336,4.66582814 L71.2826947,4.67994136 Z M87.7963018,8.53567109 C87.9469599,8.59426099 88.0672858,8.70796166 88.1308586,8.85180705 C88.1308586,8.85180705 88.1308586,8.81793534 88.1514016,8.78970892 C88.6943227,7.30499893 88.5651955,6.11384378 87.7816282,5.34326236 C87.1953466,4.7932369 86.4311187,4.45260644 85.6158131,4.3779186 C85.6949836,4.49532789 85.7349214,4.63321969 85.7302667,4.77308856 C87.1624047,4.9480924 88.0780338,5.88238709 88.0780338,7.14975359 C88.0679616,7.55525103 87.9978002,7.95729321 87.8696695,8.34373139 L87.7963018,8.53567109 Z M86.9599097,13.5515069 L86.9599097,15.4229189 L69.9914228,15.4229189 L69.9914228,13.5402163 L86.9599097,13.5515069 Z M71.6143168,14.0962769 L70.4903233,14.0962769 L70.4903233,14.8894395 L71.6260557,14.8894395 L71.6143168,14.0962769 Z M74.4580498,14.4914469 L74.5050051,14.4688657 L73.4749223,13.9974844 L72.4536436,14.4688657 L72.5005989,14.4914469 L72.4536436,14.5112054 L73.4749223,14.988232 L74.5050051,14.5112054 L74.4580498,14.4914469 Z M76.3480023,14.4914469 C76.3463836,14.2018636 76.1012834,13.9682248 75.8002005,13.9692579 C75.4991175,13.9702979 75.2557627,14.2056183 75.2562985,14.4952053 C75.256836,14.7847924 75.5010616,15.0192769 75.8021465,15.019281 C75.9520455,15.0224585 76.0967037,14.9661917 76.2021675,14.8636875 C76.3076314,14.7611832 76.3646142,14.6214674 76.3597411,14.4773337 L76.3480023,14.4914469 Z M79.6025945,14.0962769 L77.3281951,14.0962769 L77.3281951,14.8894395 L79.6084639,14.8894395 L79.6025945,14.0962769 Z M81.6568907,14.4914469 C81.6568876,14.2777017 81.5228593,14.085058 81.3174298,14.0035275 C81.1120003,13.9219969 80.8757272,13.9676759 80.7190077,14.1192213 C80.5622882,14.2707666 80.5160631,14.4982589 80.6019309,14.6954038 C80.6877987,14.8925486 80.8888066,15.0204241 81.1110349,15.019281 C81.2624385,15.0248447 81.4094349,14.969632 81.5168494,14.8668545 C81.624264,14.764077 81.6824317,14.6229826 81.6774337,14.4773337 L81.6568907,14.4914469 Z M84.427256,14.4914469 L84.4742113,14.4688657 L83.4499979,13.9974844 L82.4228498,14.4688657 L82.4698051,14.4914469 L82.4228498,14.5112054 L83.4499979,14.988232 L84.4742113,14.5112054 L84.427256,14.4914469 Z M86.4404663,14.0962769 L85.3047339,14.0962769 L85.3047339,14.8894395 L86.4404663,14.8894395 L86.4404663,14.0962769 Z" id="Shape" fill="url(#linearGradient-2)"></path>
    </g>
  </g>
</svg>
