<?xml version="1.0" encoding="utf-8"?><svg viewBox="0 0 32 27" xmlns="http://www.w3.org/2000/svg" xmlns:xlink="http://www.w3.org/1999/xlink"><style>:root>svg{display:none}:root>svg:target{display:block}</style><svg viewBox="0 0 16 16" id="busket" xmlns="http://www.w3.org/2000/svg"><g clip-path="url(#aclip0)"><path d="M12.125 12.024c-1.024 0-1.868.775-1.868 1.752 0 .96.827 1.751 1.868 1.751 1.024 0 1.869-.774 1.869-1.751-.018-.96-.845-1.752-1.869-1.752zM15.413 3.671c-.036 0-.09-.016-.144-.016H3.952l-.18-1.129c-.107-.74-.79-1.297-1.598-1.297H.719c-.396 0-.719.304-.719.674 0 .37.323.674.719.674h1.455c.09 0 .161.067.18.151l1.113 7.107c.144.893.97 1.566 1.94 1.566h7.473c.934 0 1.742-.623 1.94-1.482l1.168-5.473c.072-.354-.18-.707-.575-.775zM7.545 13.692c-.036-.927-.862-1.668-1.85-1.668-1.042.05-1.833.86-1.797 1.82.036.926.845 1.667 1.833 1.667h.036c1.023-.051 1.832-.86 1.778-1.82z"/></g><defs><clipPath id="aclip0"><path transform="translate(0 .878)" d="M0 0h16v15H0z"/></clipPath></defs></svg><svg viewBox="0 0 22 23" id="chat" xmlns="http://www.w3.org/2000/svg"><path d="M11.05.42h-.035C5.049.42.198 5.272.198 11.237c0 2.434.831 4.798 2.352 6.702l-1.574 3.66c-.13.3.012.649.307.772a.599.599 0 00.336.042l5.77-1.014a10.4 10.4 0 003.596.625c5.965 0 10.816-4.852 10.816-10.817C21.813 5.26 16.997.427 11.05.42zM7.348 9.062h3.183c.324 0 .59.265.59.59 0 .323-.266.589-.59.589H7.348a.591.591 0 01-.59-.59c0-.324.266-.59.59-.59zm7.31 4.126h-7.31a.591.591 0 01-.59-.59c0-.324.266-.59.59-.59h7.31c.324 0 .589.266.589.59 0 .324-.265.59-.59.59z"/></svg><svg viewBox="0 0 9 16" id="fb" xmlns="http://www.w3.org/2000/svg"><path d="M6.963 3.407h1.375V1.013A17.749 17.749 0 006.335.907c-1.982 0-3.34 1.247-3.34 3.538v2.109H.808V9.23h2.187v6.735h2.682V9.23h2.098l.334-2.676H5.676V4.71c0-.773.21-1.303 1.287-1.303z"/></svg><svg viewBox="0 0 21 21" id="fb_big" xmlns="http://www.w3.org/2000/svg"><path d="M20.917 10.5C20.917 4.75 16.25.083 10.5.083S.083 4.75.083 10.5c0 5.042 3.584 9.24 8.334 10.209v-7.084H6.333V10.5h2.084V7.896a3.65 3.65 0 013.646-3.646h2.604v3.125h-2.084c-.572 0-1.041.469-1.041 1.042V10.5h3.125v3.125h-3.125v7.24c5.26-.521 9.375-4.959 9.375-10.365z"/></svg><svg viewBox="0 0 20 21" id="inst_big" xmlns="http://www.w3.org/2000/svg"><path d="M17.033 0H2.967A2.968 2.968 0 00.87.875 2.996 2.996 0 000 2.98v14.133c.002.79.315 1.546.871 2.105.556.558 1.31.873 2.096.875h14.066a2.968 2.968 0 002.096-.875c.555-.559.869-1.316.871-2.105V2.98a2.996 2.996 0 00-.871-2.105A2.968 2.968 0 0017.033 0zm1.3 17.113c0 .346-.137.678-.38.923a1.297 1.297 0 01-.92.383H2.967c-.345 0-.676-.138-.92-.383a1.31 1.31 0 01-.38-.923V2.98c0-.346.137-.678.38-.923.244-.245.575-.383.92-.383h14.066c.345 0 .676.138.92.383.243.245.38.577.38.923v14.133z"/><path d="M10 5.023c-.989 0-1.956.295-2.778.847a5.018 5.018 0 00-1.841 2.254A5.045 5.045 0 006.464 13.6a4.978 4.978 0 005.449 1.089 5.006 5.006 0 002.244-1.85 5.04 5.04 0 00-.621-6.343A4.988 4.988 0 0010 5.023zm0 8.373c-.66 0-1.304-.197-1.852-.565a3.363 3.363 0 01-.505-5.152 3.329 3.329 0 013.633-.726c.609.253 1.13.682 1.496 1.233a3.36 3.36 0 01-.415 4.229 3.325 3.325 0 01-2.357.98zM15.417 5.86c.69 0 1.25-.562 1.25-1.256 0-.693-.56-1.255-1.25-1.255s-1.25.562-1.25 1.255c0 .694.56 1.256 1.25 1.256z"/></svg><svg fill="none" viewBox="0 0 32 27" id="quote" xmlns="http://www.w3.org/2000/svg"><path d="M10.6 25.64c-2 .467-3.833.7-5.5.7-1.667 0-2.933-1.033-3.8-3.1-.8-2.067-1.2-4.767-1.2-8.1 0-3.4 1.233-6.567 3.7-9.5S9.467.84 13.4.04l.9 2.9c-2.6.8-4.633 2.1-6.1 3.9-1.4 1.733-2.1 3.7-2.1 5.9v.4c.4-.067.933-.1 1.6-.1 2.467 0 3.7 2.033 3.7 6.1 0 1.8-.267 3.967-.8 6.5zm17.6 0c-2 .467-3.833.7-5.5.7-1.667 0-2.933-1.033-3.8-3.1-.8-2.067-1.2-4.767-1.2-8.1 0-3.4 1.233-6.567 3.7-9.5S27.067.84 31 .04l.9 2.9c-2.6.8-4.633 2.1-6.1 3.9-1.4 1.733-2.1 3.7-2.1 5.9v.4c.4-.067.933-.1 1.6-.1 2.467 0 3.7 2.033 3.7 6.1 0 1.8-.267 3.967-.8 6.5z" fill="#D23441"/></svg><svg fill="none" viewBox="0 0 16 15" id="star" xmlns="http://www.w3.org/2000/svg"><path d="M7.807.464a.5.5 0 01.95 0l1.48 4.552a.5.5 0 00.475.345H15.5a.5.5 0 01.294.905L11.92 9.079a.5.5 0 00-.181.559l1.479 4.552a.5.5 0 01-.77.56l-3.872-2.814a.5.5 0 00-.588 0l-3.872 2.813a.5.5 0 01-.77-.559l1.48-4.552a.5.5 0 00-.182-.559L.772 6.266a.5.5 0 01.294-.905h4.786a.5.5 0 00.476-.345L7.807.464z" fill="#BF9D63"/></svg><svg viewBox="0 0 14 11" id="tw" xmlns="http://www.w3.org/2000/svg"><path d="M13.917 1.387a5.683 5.683 0 01-1.59.413A2.68 2.68 0 0013.542.33c-.54.31-1.133.53-1.75.645a2.754 2.754 0 00-.918-.625 2.833 2.833 0 00-1.1-.219C8.245.13 7.015 1.329 7.015 2.8c0 .207.026.413.068.612-2.29-.116-4.332-1.174-5.69-2.794a2.584 2.584 0 00-.375 1.348c0 .927.487 1.744 1.23 2.224a2.856 2.856 0 01-1.248-.34v.033c0 1.298.948 2.373 2.212 2.62-.237.06-.481.09-.726.091-.18 0-.35-.017-.521-.04.35 1.058 1.367 1.826 2.58 1.851a5.651 5.651 0 01-3.427 1.141c-.231 0-.445-.008-.667-.033a8.01 8.01 0 004.239 1.198c5.075 0 7.852-4.067 7.852-7.596 0-.116 0-.232-.008-.348a5.84 5.84 0 001.384-1.38z"/></svg><svg viewBox="0 0 24 20" id="tw_big" xmlns="http://www.w3.org/2000/svg"><path d="M24 2.558c-.892.392-1.843.651-2.835.778A4.893 4.893 0 0023.33.615a9.833 9.833 0 01-3.12 1.191 4.919 4.919 0 00-8.511 3.365c0 .39.033.764.114 1.121-4.091-.199-7.71-2.16-10.142-5.146a4.954 4.954 0 00-.673 2.487c0 1.704.877 3.214 2.185 4.089A4.859 4.859 0 01.96 7.117v.054a4.943 4.943 0 003.942 4.834c-.4.11-.837.162-1.29.162a4.35 4.35 0 01-.932-.083c.638 1.948 2.447 3.38 4.598 3.427a9.886 9.886 0 01-6.1 2.099c-.404 0-.791-.018-1.178-.068a13.852 13.852 0 007.548 2.208c9.054 0 14.004-7.5 14.004-14.001 0-.217-.008-.427-.018-.636A9.816 9.816 0 0024 2.558z"/></svg><svg viewBox="0 0 16 11" id="youtube" xmlns="http://www.w3.org/2000/svg"><path d="M15.633 1.611a1.775 1.775 0 00-.487-.801 1.906 1.906 0 00-.842-.464C13.132.044 8.421.044 8.421.044s-4.711 0-5.883.302a1.906 1.906 0 00-.842.464c-.233.222-.401.498-.487.801a17.65 17.65 0 00-.317 3.453 17.65 17.65 0 00.317 3.452c.086.303.254.58.487.802.233.222.523.381.842.463 1.172.302 5.883.302 5.883.302s4.711 0 5.883-.302c.319-.082.609-.241.842-.463.233-.222.401-.499.487-.802.219-1.139.325-2.295.317-3.452a17.654 17.654 0 00-.317-3.453zM6.915 7.215V2.912l3.91 2.152-3.91 2.15z"/></svg></svg>